<svg width="14" height="14" viewBox="0 0 14 14" fill="none" xmlns="http://www.w3.org/2000/svg">
<path fill-rule="evenodd" clip-rule="evenodd" d="M0.146447 0.146447C0.341709 -0.0488155 0.658291 -0.0488155 0.853553 0.146447L7 6.29289L13.1464 0.146447C13.3417 -0.0488155 13.6583 -0.0488155 13.8536 0.146447C14.0488 0.341709 14.0488 0.658291 13.8536 0.853553L7.70711 7L13.8536 13.1464C14.0488 13.3417 14.0488 13.6583 13.8536 13.8536C13.6583 14.0488 13.3417 14.0488 13.1464 13.8536L7 7.70711L0.853553 13.8536C0.658291 14.0488 0.341709 14.0488 0.146447 13.8536C-0.0488155 13.6583 -0.0488155 13.3417 0.146447 13.1464L6.29289 7L0.146447 0.853553C-0.0488155 0.658291 -0.0488155 0.341709 0.146447 0.146447Z" fill="#ACB6C3"/>
</svg>
