<svg width="15" height="19" viewBox="0 0 15 19" fill="none" xmlns="http://www.w3.org/2000/svg">
<g clip-path="url(#clip0_3032_3166)">
<path d="M7.33327 0.166626C8.10764 0.166626 8.73327 0.68798 8.73327 1.33329V2.63485C8.80327 2.64215 8.86889 2.64944 8.93889 2.66038C8.95639 2.66402 8.96952 2.66402 8.98702 2.66767L11.087 2.9885C11.8483 3.10517 12.3514 3.71402 12.2114 4.34475C12.0714 4.97548 11.3408 5.3984 10.5839 5.28173L8.50577 4.96454C7.13639 4.79683 5.92889 4.90986 5.08014 5.19058C4.23139 5.47131 3.89014 5.85777 3.81139 6.21506C3.72389 6.60517 3.78952 6.82392 3.86389 6.95881C3.94264 7.101 4.10452 7.26142 4.42389 7.44006C5.13702 7.83017 6.23077 8.08538 7.64827 8.39892L7.77514 8.42808C9.02639 8.70517 10.5576 9.04058 11.6951 9.66038C12.3164 9.99944 12.9026 10.4588 13.2658 11.1005C13.6376 11.7531 13.7164 12.4823 13.5458 13.2588C13.2439 14.6442 12.0976 15.5703 10.6758 16.0552C10.0764 16.2593 9.42452 16.3906 8.73327 16.4562V17.6666C8.73327 18.3119 8.10764 18.8333 7.33327 18.8333C6.55889 18.8333 5.93327 18.3119 5.93327 17.6666V16.3942C5.91577 16.3906 5.89389 16.3906 5.87639 16.3869H5.86764C4.80014 16.2484 3.04577 15.8656 1.86452 15.4281C1.16014 15.1656 0.840766 14.4765 1.15577 13.8895C1.47077 13.3026 2.29764 13.0364 3.00202 13.2989C3.91639 13.638 5.42139 13.9734 6.29202 14.0864C7.68764 14.2578 8.83827 14.1593 9.61702 13.8932C10.3564 13.6416 10.6933 13.277 10.7895 12.8395C10.8726 12.4531 10.807 12.2307 10.7326 12.0958C10.6495 11.95 10.4876 11.7895 10.1639 11.6109C9.44639 11.2208 8.34827 10.9656 6.92639 10.652L6.80389 10.6265C5.55702 10.3494 4.02577 10.0104 2.88827 9.39058C2.26702 9.05152 1.68514 8.5885 1.32202 7.94683C0.954516 7.29423 0.880141 6.56506 1.05514 5.7885C1.37014 4.39579 2.62139 3.49163 4.04327 3.02131C4.62514 2.82808 5.26389 2.69683 5.93327 2.62027V1.33329C5.93327 0.68798 6.55889 0.166626 7.33327 0.166626Z" fill="white"/>
</g>
<defs>
<clipPath id="clip0_3032_3166">
<rect width="14" height="18.6667" fill="white" transform="translate(0.333252 0.166626)"/>
</clipPath>
</defs>
</svg>
