<svg width="15" height="19" viewBox="0 0 15 19" fill="none" xmlns="http://www.w3.org/2000/svg">
<g clip-path="url(#clip0_3032_3163)">
<path d="M2.43763 8.91659C2.43325 9.01502 2.43325 9.10981 2.43325 9.20825V9.79159C2.43325 9.89002 2.43325 9.98482 2.43763 10.0833H1.73325C0.958877 10.0833 0.333252 10.6046 0.333252 11.2499C0.333252 11.8952 0.958877 12.4166 1.73325 12.4166H2.97138C4.26638 15.4754 7.77075 17.6666 11.8833 17.6666H12.9333C13.7076 17.6666 14.3333 17.1452 14.3333 16.4999C14.3333 15.8546 13.7076 15.3333 12.9333 15.3333H11.8833C9.35013 15.3333 7.1495 14.152 6.02513 12.4166H11.5333C12.3076 12.4166 12.9333 11.8952 12.9333 11.2499C12.9333 10.6046 12.3076 10.0833 11.5333 10.0833H5.242C5.23763 9.98846 5.23325 9.89002 5.23325 9.79159V9.20825C5.23325 9.10981 5.23763 9.01138 5.242 8.91659H11.5333C12.3076 8.91659 12.9333 8.39523 12.9333 7.74992C12.9333 7.10461 12.3076 6.58325 11.5333 6.58325H6.02513C7.1495 4.84784 9.35013 3.66659 11.8833 3.66659H12.9333C13.7076 3.66659 14.3333 3.14523 14.3333 2.49992C14.3333 1.85461 13.7076 1.33325 12.9333 1.33325H11.8833C7.77075 1.33325 4.26638 3.5244 2.97138 6.58325H1.73325C0.958877 6.58325 0.333252 7.10461 0.333252 7.74992C0.333252 8.39523 0.958877 8.91659 1.73325 8.91659H2.43763Z" fill="white"/>
</g>
<defs>
<clipPath id="clip0_3032_3163">
<rect width="14" height="18.6667" fill="white" transform="translate(0.333252 0.166626)"/>
</clipPath>
</defs>
</svg>
