<svg width="92" height="31" viewBox="0 0 92 31" fill="none" xmlns="http://www.w3.org/2000/svg">
<path d="M26.8234 4.38043H4.775L6.36336 0H28.4118L26.8234 4.38043ZM26.0292 6.57065H3.9709L2.38254 10.9511H24.4309L26.0292 6.57065ZM23.6467 13.1413H1.58836L0 17.5217H22.0484L23.6467 13.1413Z" fill="#00AAFF"/>
<path d="M78.2458 26.4715H82.3617C83.9233 26.4715 84.8644 26.0942 85.5262 25.2578C85.8571 24.8397 86.3328 24.0951 86.3328 22.6978C86.3328 21.3005 85.8571 20.3214 84.9161 19.6177C84.3473 19.1995 83.5923 18.9649 82.3203 18.9649H78.2561V26.4715H78.2458ZM72.8165 30.9898V4.04346H90.5936L89.032 8.56171H78.2458V14.5282H82.6409C86.1881 14.5282 88.0289 15.3646 89.3009 16.4355C90.2937 17.2718 92 19.1383 92 22.8202C92 26.4613 90.2523 28.4604 88.7838 29.4905C87.0774 30.6532 85.2884 30.9796 81.6481 30.9796H72.8165V30.9898ZM57.0767 30.9898V8.56171H49.1861V4.04346H71.1205L69.5589 8.56171H62.568V30.9898H57.0767ZM35.1837 14.8138H38.2551C39.1962 14.8138 39.6719 14.8138 40.1476 14.671C41.4196 14.2937 42.2262 13.182 42.2262 11.6419C42.2262 9.82641 41.3782 9.03087 40.1476 8.6535C39.6305 8.51071 39.1031 8.46992 38.069 8.46992H35.1837V14.8138ZM35.2354 19.4749V26.5633H39.0204C40.1579 26.5633 41.1921 26.4715 41.947 25.7678C42.702 25.064 43.0329 24.1869 43.0329 23.014C43.0329 22.1267 42.795 21.2903 42.3193 20.6784C41.5127 19.6993 40.5199 19.4647 38.8239 19.4647H35.2354V19.4749ZM43.9843 16.6293V16.7211C45.0288 17.0984 46.0216 17.7512 46.5387 18.1694C48.1416 19.4749 48.8552 21.1985 48.8552 23.4424C48.8552 27.1243 46.8696 29.7863 43.612 30.6226C42.6192 30.898 41.5747 31 39.6409 31H29.7647V4.04346H38.5136C40.3131 4.04346 41.5437 4.13525 42.6296 4.42083C45.7941 5.25716 47.8727 7.4092 47.8727 10.8055C47.8727 12.621 47.2109 14.1611 46.125 15.1912C45.6286 15.6502 44.9668 16.2111 43.9843 16.6293Z" fill="white"/>
</svg>
