<svg width="40" height="54" viewBox="0 0 40 54" fill="none" xmlns="http://www.w3.org/2000/svg">
<g filter="url(#filter0_d_3032_4349)">
<path d="M31 19C31 23.2 29 26.9 25.9 29.3C23.4 29.6 21.4 29.5 20 29.4C17.7 29.3 16.4 28.9 14 29C12.3 29 11 29.2 10.1 29.3C10 29.2 9.8 29.1 9.7 29C6.8 26.6 5 23 5 19C5 11.8 10.8 6 18 6C25.2 6 31 11.8 31 19Z" fill="white"/>
<path d="M18 1C8.6 1 1 8.9 1 18.7C1 26.7 11.4 41.1 15.9 47C17 48.4 19 48.4 20.1 47C24.6 41 35 26.7 35 18.7C35 8.9 27.4 1 18 1ZM30.6 15.3C27.3 16.1 24.6 16.3 22.8 16.3C17.6 16.3 14.9 14.9 9.8 15.7C7.8 16 6.3 16.5 5.3 16.8C5.5 15.7 6 14.2 7.1 12.6C7.7 11.8 11.4 6.1 18 6C18 6 26 5.5 30 14C30.2 14.5 30.5 15 30.6 15.3Z" fill="url(#paint0_linear_3032_4349)"/>
<path d="M26.8999 16.5H11.3999L12.4999 14H27.9999L26.8999 16.5Z" fill="#00AAFF"/>
<path d="M11.7999 15.4999C12.7999 15.3999 13.9999 15.3999 15.1999 15.3999C17.0999 15.3999 18.7999 15.5999 20.2999 15.8999C21.8999 16.1999 23.7999 16.3999 25.9999 16.1999C26.3999 16.1999 26.7999 16.0999 27.1999 16.0999L26.9999 16.5999H11.3999L11.7999 15.4999Z" fill="white"/>
<path d="M26.3 17.7998H10.8L9.7 20.2998H25.2L26.3 17.7998ZM24.6 21.4998H9.1L8 23.9998H23.5L24.6 21.4998Z" fill="white"/>
</g>
<defs>
<filter id="filter0_d_3032_4349" x="0" y="0" width="40" height="53.0498" filterUnits="userSpaceOnUse" color-interpolation-filters="sRGB">
<feFlood flood-opacity="0" result="BackgroundImageFix"/>
<feColorMatrix in="SourceAlpha" type="matrix" values="0 0 0 0 0 0 0 0 0 0 0 0 0 0 0 0 0 0 127 0" result="hardAlpha"/>
<feOffset dx="2" dy="2"/>
<feGaussianBlur stdDeviation="1.5"/>
<feComposite in2="hardAlpha" operator="out"/>
<feColorMatrix type="matrix" values="0 0 0 0 0 0 0 0 0 0 0 0 0 0 0 0 0 0 0.25 0"/>
<feBlend mode="normal" in2="BackgroundImageFix" result="effect1_dropShadow_3032_4349"/>
<feBlend mode="normal" in="SourceGraphic" in2="effect1_dropShadow_3032_4349" result="shape"/>
</filter>
<linearGradient id="paint0_linear_3032_4349" x1="1" y1="24.525" x2="35" y2="24.525" gradientUnits="userSpaceOnUse">
<stop stop-color="#0037FF"/>
<stop offset="1" stop-color="#0085FF"/>
</linearGradient>
</defs>
</svg>
