<svg width="40" height="54" viewBox="0 0 40 54" fill="none" xmlns="http://www.w3.org/2000/svg">
<g filter="url(#filter0_d_3032_4410)">
<path d="M31 19C31 23.2 29 26.9 25.9 29.3C23.4 29.6 21.4 29.5 20 29.4C17.7 29.3 16.4 28.9 14 29C12.3 29 11 29.2 10.1 29.3C10 29.2 9.8 29.1 9.7 29C6.8 26.6 5 23 5 19C5 11.8 10.8 6 18 6C25.2 6 31 11.8 31 19Z" fill="white"/>
<path d="M26.9 16.5H11.4L12.5 14H28L26.9 16.5ZM26.3 17.7H10.8L9.7 20.2H25.2L26.3 17.7ZM24.6 21.5H9.1L8 24H23.5L24.6 21.5Z" fill="#00AAFF"/>
<path d="M18 1C8.6 1 1 8.9 1 18.7C1 26.7 11.4 41.1 15.9 47C17 48.4 19 48.4 20.1 47C24.6 41 35 26.7 35 18.7C35 8.9 27.4 1 18 1ZM25.9 29.3C23.4 29.6 21.4 29.5 20 29.4C17.7 29.3 16.4 28.9 14 29C12.3 29 11 29.2 10.1 29.3C10 29.2 9.8 29.1 9.7 29C6.8 26.6 5 23 5 19C5 11.8 10.8 6 18 6C25.2 6 31 11.8 31 19C31 23.2 29 26.9 25.9 29.3Z" fill="url(#paint0_linear_3032_4410)"/>
</g>
<defs>
<filter id="filter0_d_3032_4410" x="0" y="0" width="40" height="53.0498" filterUnits="userSpaceOnUse" color-interpolation-filters="sRGB">
<feFlood flood-opacity="0" result="BackgroundImageFix"/>
<feColorMatrix in="SourceAlpha" type="matrix" values="0 0 0 0 0 0 0 0 0 0 0 0 0 0 0 0 0 0 127 0" result="hardAlpha"/>
<feOffset dx="2" dy="2"/>
<feGaussianBlur stdDeviation="1.5"/>
<feComposite in2="hardAlpha" operator="out"/>
<feColorMatrix type="matrix" values="0 0 0 0 0 0 0 0 0 0 0 0 0 0 0 0 0 0 0.25 0"/>
<feBlend mode="normal" in2="BackgroundImageFix" result="effect1_dropShadow_3032_4410"/>
<feBlend mode="normal" in="SourceGraphic" in2="effect1_dropShadow_3032_4410" result="shape"/>
</filter>
<linearGradient id="paint0_linear_3032_4410" x1="1" y1="24.525" x2="35" y2="24.525" gradientUnits="userSpaceOnUse">
<stop stop-color="#0037FF"/>
<stop offset="1" stop-color="#0085FF"/>
</linearGradient>
</defs>
</svg>
