<svg width="15" height="19" viewBox="0 0 15 19" fill="none" xmlns="http://www.w3.org/2000/svg">
<g clip-path="url(#clip0_3032_3169)">
<path d="M3.83325 1.33325C3.18794 1.33325 2.66659 1.85461 2.66659 2.49992V9.49992H1.49992C0.854606 9.49992 0.333252 10.0213 0.333252 10.6666C0.333252 11.3119 0.854606 11.8333 1.49992 11.8333H2.66659V12.9999H1.49992C0.854606 12.9999 0.333252 13.5213 0.333252 14.1666C0.333252 14.8119 0.854606 15.3333 1.49992 15.3333H2.66659V16.4999C2.66659 17.1452 3.18794 17.6666 3.83325 17.6666C4.47856 17.6666 4.99992 17.1452 4.99992 16.4999V15.3333H10.8333C11.4786 15.3333 11.9999 14.8119 11.9999 14.1666C11.9999 13.5213 11.4786 12.9999 10.8333 12.9999H4.99992V11.8333H9.08325C11.9817 11.8333 14.3333 9.48169 14.3333 6.58325C14.3333 3.68481 11.9817 1.33325 9.08325 1.33325H3.83325ZM9.08325 9.49992H4.99992V3.66659H9.08325C10.6947 3.66659 11.9999 4.97179 11.9999 6.58325C11.9999 8.19471 10.6947 9.49992 9.08325 9.49992Z" fill="white"/>
</g>
<defs>
<clipPath id="clip0_3032_3169">
<rect width="14" height="18.6667" fill="white" transform="translate(0.333252 0.166626)"/>
</clipPath>
</defs>
</svg>
