<svg width="16" height="16" viewBox="0 0 16 16" fill="none" xmlns="http://www.w3.org/2000/svg">
<path fill-rule="evenodd" clip-rule="evenodd" d="M7.53332 1.83329C4.3853 1.83329 1.83332 4.38527 1.83332 7.53329C1.83332 10.6813 4.3853 13.2333 7.53332 13.2333C9.08548 13.2333 10.4927 12.6129 11.5206 11.6065C11.522 11.6052 11.5234 11.6038 11.5248 11.6025C12.5792 10.5681 13.2333 9.12706 13.2333 7.53329C13.2333 4.38527 10.6813 1.83329 7.53332 1.83329ZM13.2647 12.1617C14.2875 10.8969 14.9 9.28661 14.9 7.53329C14.9 3.46479 11.6018 0.166626 7.53332 0.166626C3.46483 0.166626 0.166656 3.46479 0.166656 7.53329C0.166656 11.6018 3.46483 14.9 7.53332 14.9C9.24785 14.9 10.8256 14.3142 12.0773 13.332L14.4206 15.5989C14.7514 15.9189 15.2789 15.9102 15.5989 15.5794C15.9189 15.2486 15.9102 14.721 15.5794 14.401L13.2647 12.1617Z" fill="#ACB6C3"/>
</svg>
