<svg width="24" height="24" viewBox="0 0 24 24" fill="none" xmlns="http://www.w3.org/2000/svg">
<g clip-path="url(#clip0_3033_8108)">
<path d="M9 4.5C9.59674 4.5 10.169 4.26295 10.591 3.84099C11.0129 3.41903 11.25 2.84674 11.25 2.25C11.25 1.65326 11.0129 1.08097 10.591 0.65901C10.169 0.237053 9.59674 0 9 0C8.40326 0 7.83097 0.237053 7.40901 0.65901C6.98705 1.08097 6.75 1.65326 6.75 2.25C6.75 2.84674 6.98705 3.41903 7.40901 3.84099C7.83097 4.26295 8.40326 4.5 9 4.5ZM5.64844 11.5875C6.22969 11.3672 6.525 10.7203 6.30469 10.1391C6.08438 9.55781 5.4375 9.2625 4.85625 9.48281C2.02031 10.5516 0 13.2891 0 16.5C0 20.6438 3.35625 24 7.5 24C10.3688 24 12.8578 22.3922 14.1188 20.0297C14.4094 19.4812 14.2031 18.8016 13.6547 18.5062C13.1062 18.2109 12.4266 18.4219 12.1312 18.9703C11.25 20.625 9.50625 21.75 7.5 21.75C4.59844 21.75 2.25 19.4016 2.25 16.5C2.25 14.2547 3.66094 12.3375 5.64844 11.5875ZM12.1781 8.25L12.0891 7.79531C11.8781 6.75 10.9641 6 9.89531 6C8.48438 6 7.425 7.28906 7.70156 8.67188L8.78437 14.0859C9.06562 15.4875 10.2937 16.4953 11.7281 16.4953H11.9672C11.9859 16.4953 12.0047 16.4953 12.0281 16.4953H16.4391C16.7531 16.4953 17.0297 16.6875 17.1422 16.9828L18.8438 21.525C19.125 22.2797 19.9594 22.6781 20.7234 22.4203L22.9734 21.6703C23.7609 21.4078 24.1828 20.5594 23.9203 19.7719C23.6578 18.9844 22.8094 18.5625 22.0219 18.825L21.1453 19.1156L19.95 15.9281C19.4016 14.4656 18 13.4953 16.4391 13.4953H13.2281L12.7781 11.2453H15.75C16.5797 11.2453 17.25 10.575 17.25 9.74531C17.25 8.91562 16.5797 8.24531 15.75 8.24531H12.1781V8.25Z" fill="#00AAFF"/>
</g>
<defs>
<clipPath id="clip0_3033_8108">
<rect width="24" height="24" fill="white"/>
</clipPath>
</defs>
</svg>
